<?xml version="1.0" encoding="UTF-8" standalone="no"?>
<!-- Created with Inkscape (http://www.inkscape.org/) -->

<svg
   width="512"
   height="512"
   viewBox="0 0 135.46666 135.46667"
   version="1.1"
   id="svg5"
   inkscape:version="1.1.2 (b8e25be833, 2022-02-05)"
   sodipodi:docname="smiley.svg"
   xmlns:inkscape="http://www.inkscape.org/namespaces/inkscape"
   xmlns:sodipodi="http://sodipodi.sourceforge.net/DTD/sodipodi-0.dtd"
   xmlns="http://www.w3.org/2000/svg"
   xmlns:svg="http://www.w3.org/2000/svg">
  <sodipodi:namedview
     id="namedview7"
     pagecolor="#505050"
     bordercolor="#ffffff"
     borderopacity="1"
     inkscape:pageshadow="0"
     inkscape:pageopacity="0"
     inkscape:pagecheckerboard="1"
     inkscape:document-units="px"
     showgrid="false"
     units="px"
     inkscape:zoom="0.52441406"
     inkscape:cx="256.47672"
     inkscape:cy="368.0298"
     inkscape:window-width="1366"
     inkscape:window-height="697"
     inkscape:window-x="-8"
     inkscape:window-y="-8"
     inkscape:window-maximized="1"
     inkscape:current-layer="layer1" />
  <defs
     id="defs2" />
  <g
     inkscape:label="Layer 1"
     inkscape:groupmode="layer"
     id="layer1">
    <ellipse
       style="fill:#ffff00;stroke:#d3d700;stroke-width:1.85208;stroke-opacity:0.79919678;fill-opacity:0.67871493"
       id="path913"
       cx="69.373055"
       cy="69.120796"
       rx="62.30962"
       ry="61.04829" />
    <path
       style="fill:none;stroke:#000000;stroke-width:6.61458325;stroke-linecap:butt;stroke-linejoin:miter;stroke-opacity:1;stroke-miterlimit:4;stroke-dasharray:none"
       d="m 30.776412,84.761265 c -1.176133,3.951962 1.847356,5.875829 2.522657,8.577032 0.256744,1.026983 0.05303,1.619663 0.504531,2.522656 0.138811,0.277628 6.457887,6.155207 7.063438,6.558907 0.139933,0.0933 0.336355,0 0.504532,0 0.504531,0.33636 1.084826,0.5803 1.513594,1.00907 1.380921,1.38092 2.443003,3.34584 4.03625,4.54078 0.425458,0.31909 1.088136,0.18543 1.513594,0.50453 0.570812,0.42811 0.875408,1.1945 1.513594,1.51359 0.597257,0.29863 5.642938,1.78914 6.558907,2.01813 4.199477,1.04987 -1.316561,-0.50453 1.513594,-0.50453 0.237839,0 0.2789,0.42932 0.504534,0.50453 1.2071,0.40237 2.950255,-0.23303 4.03625,-0.50453 2.857252,-0.71432 6.18875,0.57856 9.081564,0 2.185053,-0.43702 4.568814,-0.85023 6.558907,-1.5136 0.454078,-0.15136 1.059516,0.15136 1.513594,0 1.000598,-0.33353 7.608964,-2.175 8.072501,-2.52265 1.681771,-1.26133 -0.840886,-0.92498 1.513593,-1.5136 1.447054,-0.36176 3.890413,-1.36775 5.045314,-2.52265 0.265911,-0.26592 0.238619,-0.74316 0.504531,-1.00907 0.658267,-0.65826 2.803922,-1.79486 3.531722,-2.522653 0.462158,-0.462161 2.915697,-4.599334 3.027187,-5.045316 0.38454,-1.538142 -0.71437,-0.694306 0.50453,-2.522657 0.0933,-0.13993 0.42932,0.150424 0.50453,0 0.7386,-1.4772 1.93095,-7.985326 2.52266,-8.577032"
       id="path1080" />
    <ellipse
       style="fill:#000000;fill-opacity:1;stroke:none;stroke-width:6.61458;stroke-miterlimit:4;stroke-dasharray:none;stroke-opacity:0.799197"
       id="path1126"
       cx="37.335316"
       cy="50.705399"
       rx="11.604221"
       ry="15.892737" />
    <ellipse
       style="fill:#000000;fill-opacity:1;stroke:none;stroke-width:6.61458;stroke-miterlimit:4;stroke-dasharray:none;stroke-opacity:0.799197"
       id="path1128"
       cx="97.122284"
       cy="49.696335"
       rx="13.370081"
       ry="17.406332" />
  </g>
</svg>
